<!DOCTYPE svg PUBLIC "-//W3C//DTD SVG 1.1//EN" "http://www.w3.org/Graphics/SVG/1.1/DTD/svg11.dtd">
<!-- Uploaded to: SVG Repo, www.svgrepo.com, Transformed by: SVG Repo Mixer Tools -->
<svg width="800px" height="800px" viewBox="0 0 32 32" id="_x3C_Layer_x3E_" version="1.1" xml:space="preserve" xmlns="http://www.w3.org/2000/svg" xmlns:xlink="http://www.w3.org/1999/xlink" fill="#000000">
<g id="SVGRepo_bgCarrier" stroke-width="0"/>
<g id="SVGRepo_tracerCarrier" stroke-linecap="round" stroke-linejoin="round"/>
<g id="SVGRepo_iconCarrier"> <style type="text/css">  .st0{fill:#E3F2FD;} .st1{fill:#80D8FF;} .st2{fill:#1AD2A4;} .st3{fill:#ECEFF1;} .st4{fill:#55FB9B;} .st5{fill:#BBDEFB;} .st6{fill:#C1AEE1;} .st7{fill:#FF5252;} .st8{fill:#FF8A80;} .st9{fill:#FFB74D;} .st10{fill:#FFF176;} .st11{fill:#FFFFFF;} .st12{fill:#65C7EA;} .st13{fill:#CFD8DC;} .st14{fill:#37474F;} .st15{fill:#78909C;} .st16{fill:#42A5F5;} .st17{fill:#000000;}  </style> <g id="Ethereum_x2C__crypto_x2C__cryptocurrency"> <g id="XMLID_40_"> <g id="XMLID_3638_"> <polygon class="st3" id="XMLID_45_" points="16,1.5 7.3,16 16,30.5 24.7,16 "/> </g> <g id="XMLID_73_"> <polygon class="st13" id="XMLID_50_" points="16,20.3 7.3,16 16,30.5 24.7,16 "/> </g> </g> <g id="XMLID_1535_"> <g id="XMLID_1557_"> <path class="st17" d="M16,31c-0.09,0-0.18-0.02-0.26-0.07c-0.24-0.14-0.31-0.45-0.17-0.69L24.12,16L16,2.47 L7.73,16.26c-0.14,0.24-0.45,0.31-0.69,0.17c-0.24-0.14-0.31-0.45-0.17-0.69l8.7-14.5c0.18-0.3,0.68-0.3,0.86,0l8.7,14.5 c0.09,0.16,0.09,0.36,0,0.51l-8.7,14.5C16.33,30.91,16.17,31,16,31z" id="XMLID_737_"/> </g> <g id="XMLID_1539_"> <path class="st17" d="M16,31c-0.17,0-0.33-0.09-0.43-0.24l-8.7-14.5c-0.14-0.24-0.07-0.54,0.17-0.69 c0.23-0.14,0.54-0.07,0.69,0.17l8.7,14.5c0.14,0.24,0.07,0.54-0.17,0.69C16.18,30.98,16.09,31,16,31z" id="XMLID_736_"/> </g> <g id="XMLID_3278_"> <path class="st17" d="M24.7,16.5c-0.08,0-0.15-0.02-0.22-0.05l-6.66-3.33c-0.25-0.12-0.35-0.42-0.22-0.67 c0.12-0.25,0.42-0.35,0.67-0.22l6.66,3.33c0.25,0.12,0.35,0.42,0.22,0.67C25.06,16.4,24.88,16.5,24.7,16.5z" id="XMLID_735_"/> </g> <g id="XMLID_266_"> <path class="st17" d="M7.3,16.5c-0.18,0-0.36-0.1-0.45-0.28c-0.12-0.25-0.02-0.55,0.22-0.67l6.65-3.33 c0.25-0.12,0.55-0.02,0.67,0.22c0.12,0.25,0.02,0.55-0.22,0.67l-6.65,3.33C7.45,16.48,7.38,16.5,7.3,16.5z" id="XMLID_734_"/> </g> <g id="XMLID_1538_"> <path class="st17" d="M16,31c-0.18,0-0.34-0.09-0.43-0.24l-8.7-14.5c-0.11-0.19-0.09-0.43,0.06-0.6 c0.15-0.16,0.39-0.21,0.59-0.11L16,19.79l8.48-4.24c0.2-0.1,0.44-0.06,0.59,0.11c0.15,0.16,0.18,0.41,0.06,0.6l-8.7,14.5 C16.34,30.91,16.18,31,16,31z M8.61,17.22L16,29.53l7.39-12.31l-7.16,3.58c-0.14,0.07-0.31,0.07-0.45,0L8.61,17.22z" id="XMLID_731_"/> </g> <g id="XMLID_1537_"> <path class="st17" d="M16,20.35c-0.28,0-0.5-0.22-0.5-0.5V5.5C15.5,5.22,15.72,5,16,5s0.5,0.22,0.5,0.5v14.35 C16.5,20.12,16.28,20.35,16,20.35z" id="XMLID_730_"/> </g> <g id="XMLID_1536_"> <path class="st17" d="M16,31c-0.18,0-0.34-0.09-0.43-0.24l-8.7-14.5c-0.09-0.16-0.09-0.36,0-0.51l8.7-14.5 c0.18-0.3,0.68-0.3,0.86,0l8.7,14.5c0.09,0.16,0.09,0.36,0,0.51l-8.7,14.5C16.34,30.91,16.18,31,16,31z M7.88,16L16,29.53 L24.12,16L16,2.47L7.88,16z" id="XMLID_727_"/> </g> </g> </g> </g>
</svg>