<svg width="466" height="472" viewBox="0 0 466 472" fill="none" xmlns="http://www.w3.org/2000/svg">
<g clip-path="url(#clip0_5_121)">
<path d="M63.1412 143.286C63.1412 135.267 66.8223 126.952 77.9467 126.952C80.3583 126.952 96.9173 127.981 99.1673 125.994C108.959 106.732 110.23 79.2374 131.28 68.4223C158.716 54.3332 193.141 45.5675 221.43 32.3746L233.427 31.0704L372.418 50.3496C373.529 48.0162 376.757 45.7272 379.336 45.2925C386.282 44.1391 420.156 44.2101 427.253 45.3014C432.686 46.1353 437.24 51.7692 437.542 57.2167C437.542 90.7857 437.578 128.413 437.578 161.057C436.982 167.347 433.113 173.105 426.443 173.904C416.572 175.092 392.054 174.862 381.924 173.921C374.356 173.212 372.853 168.137 370.408 167.666C365.045 166.637 337.281 166.912 331.242 167.658C324.19 168.518 315.831 175.261 308.592 176.556V371.744H331.269C336.063 371.744 340.731 376.979 342.137 381.309C344.191 387.67 344.12 419.512 343.044 426.965C342.234 432.572 339.406 437.319 333.732 438.969L37.3245 438.756C31.2594 436.565 28.9471 430.594 28.4224 424.569C27.6132 415.28 27.3997 393.783 28.6892 384.84C29.4007 379.907 34.1052 371.744 39.5744 371.744H63.1412V143.286ZM369.065 63.8797L236.095 45.2659L224.756 45.4611L135.629 81.6418C123.392 89.1743 120.698 112.819 114.206 125.071L115.157 126.872H141.837C154.127 116.119 162.558 100.744 180.184 98.5877C198.824 96.3164 223.511 94.6396 242.338 94.054C258.461 93.5483 275.153 97.1504 278.133 115.995C280.863 133.278 271.481 141.538 257.607 148.325C236.353 158.714 210.376 166.504 190.117 177.701C171.62 187.931 182.185 212.595 201.874 208.061C239.705 192.988 276.327 174.436 314.203 159.54C319.228 157.561 327.916 153.489 333.039 153.489H369.056V63.8797H369.065ZM424.202 58.5564H383.294V160.586H424.202V58.5564ZM162.744 126.872H262.792C269.346 117.077 260.213 107.265 249.452 107.274C226.321 107.291 200.985 112.162 177.64 112.89C173.914 113.901 166.506 121.043 164.078 124.202C163.393 125.098 162.362 125.32 162.753 126.872H162.744ZM240.115 140.18H76.4809C76.4809 140.753 76.4809 144.945 76.4809 145.947V399.248H295.252V182.767L204.595 221.414C169.067 228.822 151.459 182.35 184.639 165.129C201.136 156.567 220.852 150.88 237.429 142.381C238.452 141.857 239.892 141.556 240.115 140.172V140.18ZM329.046 385.053H309.926L308.592 386.383V402.353C308.592 408.747 303.631 412.601 299.327 412.574L72.897 412.131C68.2957 412.131 63.1412 405.822 63.1412 402.353V386.375L61.8073 385.044H42.687V386.375V425.412V426.743H329.046V385.044V385.053Z" fill="white"/>
<path d="M231.862 229.08C238.487 227.616 242.258 234.252 239.118 239.886L164.016 335.306C160.814 337.879 157.809 338.607 154.287 336.264C152.117 334.818 134.295 317.003 132.988 314.927C130 310.189 131.574 304.129 137.621 303.597C143.668 303.065 153.157 316.79 157.853 320.268L231.862 229.08Z" fill="white"/>
</g>
<defs>
<clipPath id="clip0_5_121">
<rect width="466" height="472" fill="white"/>
</clipPath>
</defs>
</svg>
