<?xml version="1.0" encoding="utf-8"?>
<!-- Uploaded to: SVG Repo, www.svgrepo.com, Generator: SVG Repo Mixer Tools -->
<svg fill="#000000" version="1.1" id="Layer_1" xmlns="http://www.w3.org/2000/svg" xmlns:xlink="http://www.w3.org/1999/xlink" 
	 width="800px" height="800px" viewBox="0 0 256 240" enable-background="new 0 0 256 240" xml:space="preserve">
<path d="M108.327,28.998c11.331,0,20.516,9.185,20.516,20.516s-9.185,20.516-20.516,20.516S87.81,60.845,87.81,49.514
	S96.996,28.998,108.327,28.998z M33.069,153.324l-0.189-0.189l0,0c-0.851-0.567-1.607-1.04-2.269-1.796l2.269,26L4.327,217.804
	c-4.065,5.862-2.647,13.804,3.025,17.869c5.862,4.065,13.804,2.647,17.869-3.025l30.822-44.436c1.607-2.269,2.647-5.295,2.269-8.32
	l-1.04-12.574L33.069,153.324z M117.876,237.942h122.341l-22.88-71.381c0,0-12.953,3.215-38.574,30.443
	c-0.567,0.567-1.229,1.229-1.796,1.796l-61.832-35.738c1.04-1.985,1.229-4.255,0.851-6.713L94.05,75.041
	c-1.796-7.942-8.887-13.993-17.207-13.993H35.905c-3.025,0-6.051,1.607-7.753,4.255L7.731,100.757
	c-2.647,4.255-1.04,9.738,3.215,12.196l22.88,13.142l-3.025,5.105c-3.687,6.051-1.607,13.804,4.633,17.207L86.77,178v46.894
	c0,7.091,5.673,12.764,12.764,12.764s12.764-5.673,12.764-12.764v-53.512l56.821,32.902c-11.724,6.713-25.149,7.942-34.698,13.614
	C122.697,224.895,117.876,237.942,117.876,237.942z M38.174,118.626l-15.033-8.698l0,0l17.869-30.822h20.044L38.174,118.626z
	 M71.171,137.724l14.182-24.771l10.589,38.952L71.171,137.724z M210.301,2.009V2l-0.014,0.005L210.274,2v0.009l-43.699,14.562
	v58.283c0,0,0.519,26.961,43.713,43.713C253.481,101.815,254,74.854,254,74.854V16.571L210.301,2.009z M204.623,77.677
	l-21.305-21.301l7.732-7.732l13.583,13.587l24.907-24.834l7.718,7.741L204.623,77.677z"/>
</svg>