<svg xmlns="http://www.w3.org/2000/svg" viewBox="-0.00212212 0 19.2 18">
	<path d="M9.577 0h2.989c.092 0 .186.008.277.018.183.019.29.127.317.307.016.105.02.215.02.32 0 1.53-.002 3.061-.006 4.591 0 .42-.103.522-.52.522-.842 0-1.685.003-2.529-.007-.148 0-.181.047-.177.184.008.255.005.51-.003.765-.003.126.03.189.163.224.819.225 1.337.76 1.549 1.591.025.098.065.13.161.13.418-.004.837-.006 1.254 0 .107 0 .142-.044.177-.141.26-.714.72-1.205 1.505-1.28.759-.075 1.318.27 1.718.903.05.079.11.164.121.251.027.232.148.276.36.27.565-.017 1.129-.007 1.693-.006.074 0 .147-.003.219.008.194.028.338.187.334.364-.003.176-.153.33-.352.347-.126.01-.252.003-.378.003h-1.633c-.091 0-.152.006-.19.12-.198.603-.579 1.033-1.194 1.217-.135.04-.191.088-.183.241.017.37.02.738.012 1.107-.003.164.056.204.21.203.683-.01 1.367-.01 2.05-.011.053 0 .107.003.16.006.352.02.43.101.43.454v4.207c0 .214.01.43.008.644-.001.322-.111.44-.43.442-.856.004-1.713 0-2.57.001l-2.808.002c-.08 0-.16-.002-.239-.008-.242-.018-.344-.118-.35-.37-.01-.334-.005-.67-.005-1.006 0-1.282-.002-2.562 0-3.844 0-.434.078-.519.51-.525a120.57 120.57 0 0 1 2.152 0c.132 0 .186-.016.184-.171-.006-.382.007-.765.021-1.147.005-.114-.033-.166-.14-.203-.62-.21-1.044-.623-1.232-1.262-.027-.092-.075-.111-.158-.111-.411.006-.824.012-1.235.01-.109 0-.14.041-.17.143-.254.835-.79 1.404-1.643 1.58-.905.186-1.643-.146-2.182-.907a1.759 1.759 0 0 1-.31-.691c-.023-.115-.077-.137-.177-.135-.412.006-.824.008-1.236.01-.08 0-.125.014-.156.109-.199.63-.604 1.061-1.24 1.25-.103.03-.137.064-.134.173.011.389.018.778.011 1.168-.003.156.058.192.2.19.683-.008 1.367-.008 2.051-.011.073 0 .147.005.218.01.283.02.378.115.378.404.003.784 0 1.57 0 2.354.002.84.007 1.679.011 2.516 0 .338-.114.469-.448.47-1.826.004-3.651.004-5.478 0-.395 0-.476-.083-.478-.49a969.172 969.172 0 0 1 0-4.81c0-.348.086-.441.442-.446.736-.011 1.474-.01 2.21-.002.145 0 .196-.024.193-.183-.006-.382.007-.765.02-1.147.002-.095-.02-.151-.114-.18-.639-.208-1.074-.622-1.257-1.284-.03-.111-.1-.103-.182-.101-.598.006-1.196.01-1.793.01-.1 0-.2-.007-.297-.02C.111 9.317.015 9.203 0 9.045c-.017-.169.069-.295.227-.364a.66.66 0 0 1 .274-.04c.617 0 1.235-.002 1.852.003.123 0 .183-.026.221-.158.212-.736.934-1.28 1.679-1.28.738 0 1.471.552 1.685 1.279.033.112.074.162.2.16.405-.007.81-.006 1.215 0 .113.002.16-.032.19-.144.234-.841.774-1.37 1.611-1.583.088-.023.104-.062.1-.137-.006-.289-.017-.577-.014-.865 0-.139-.053-.163-.178-.161-.83.006-1.661.004-2.49.004-.462 0-.561-.098-.563-.563V.546c0-.406.118-.536.517-.54C7.54 0 8.557.005 9.572.005V0h.005Zm-.018 5.064c.884 0 1.767-.007 2.65.003.197.002.242-.066.24-.256-.01-1.268-.006-2.535-.008-3.804 0-.268 0-.27-.27-.27-1.738 0-3.479.004-5.218-.004-.188 0-.215.064-.215.23.003 1.314 0 2.63-.008 3.944 0 .128.039.158.158.158.89-.005 1.779-.003 2.668-.003l.003.002ZM4.245 17.277c.77 0 1.542-.007 2.312.003.164.002.194-.04.192-.2-.008-1.275-.006-2.55-.004-3.825 0-.272.008-.275-.255-.275-1.508 0-3.014.005-4.522 0-.172 0-.206.056-.204.219.006 1.308.005 2.617 0 3.925 0 .124.024.16.153.158.776-.007 1.554-.003 2.33-.003l-.002-.002Zm10.681.002v-.004c.776 0 1.554-.005 2.33.005.15.002.172-.045.172-.184-.006-1.294-.01-2.59 0-3.884 0-.173-.022-.235-.205-.234-1.533.007-3.068.005-4.602 0-.137 0-.181.036-.181.182.004 1.329.003 2.658-.002 3.985 0 .11.032.135.137.135.784-.005 1.567-.002 2.351-.002ZM8.187 9.027c.053.88.654 1.474 1.44 1.426.836-.052 1.455-.709 1.4-1.513-.055-.823-.725-1.435-1.58-1.362a1.359 1.359 0 0 0-1.26 1.448v.001Zm-3.91-1.082c-.613-.011-1.119.453-1.12 1.032-.003.596.511 1.102 1.133 1.113.56.012 1.052-.48 1.06-1.056a1.085 1.085 0 0 0-1.071-1.089h-.002Zm10.687 2.145c.571.008 1.08-.494 1.081-1.066.002-.599-.47-1.072-1.078-1.079-.64-.008-1.083.428-1.085 1.071-.002.596.472 1.066 1.082 1.074Z" fill="#000000"/>
</svg>